<svg width="26" height="26" viewBox="0 0 26 26" fill="none" xmlns="http://www.w3.org/2000/svg">
<path d="M3.36472 3.88531L5.53138 4.26031L6.53451 16.2114C6.61472 17.1874 7.43034 17.9364 8.40951 17.9332H19.773C20.7074 17.9353 21.5001 17.2478 21.6324 16.3228L22.621 9.49157C22.7314 8.72802 22.2012 8.01969 21.4387 7.90927C21.372 7.8999 5.8793 7.89469 5.8793 7.89469" stroke="#333333" stroke-width="2" stroke-linecap="round" stroke-linejoin="round"/>
<path d="M15.2136 11.7446H18.1022" stroke="#333333" stroke-width="2" stroke-linecap="round" stroke-linejoin="round"/>
<path fill-rule="evenodd" clip-rule="evenodd" d="M7.95253 21.5443C8.26607 21.5443 8.5192 21.7984 8.5192 22.1109C8.5192 22.4245 8.26607 22.6786 7.95253 22.6786C7.63899 22.6786 7.38586 22.4245 7.38586 22.1109C7.38586 21.7984 7.63899 21.5443 7.95253 21.5443Z" fill="#333333" stroke="#333333" stroke-width="2" stroke-linecap="round" stroke-linejoin="round"/>
<path fill-rule="evenodd" clip-rule="evenodd" d="M19.7028 21.5443C20.0164 21.5443 20.2705 21.7984 20.2705 22.1109C20.2705 22.4245 20.0164 22.6786 19.7028 22.6786C19.3893 22.6786 19.1362 22.4245 19.1362 22.1109C19.1362 21.7984 19.3893 21.5443 19.7028 21.5443Z" fill="#333333" stroke="#333333" stroke-width="2" stroke-linecap="round" stroke-linejoin="round"/>
</svg>
