<svg width="15" height="15" viewBox="0 0 15 15" fill="none" xmlns="http://www.w3.org/2000/svg">
<path d="M7.5743 13.6349C4.01911 13.6349 1.1272 10.743 1.1272 7.18781C1.1272 4.77299 2.46252 2.57994 4.61224 1.46537C4.69826 1.42032 4.79526 1.40052 4.89206 1.40825C4.98885 1.41599 5.08148 1.45094 5.15925 1.50908C5.23702 1.56722 5.29676 1.64618 5.33157 1.73682C5.36638 1.82747 5.37484 1.92611 5.35598 2.02136C5.28877 2.36407 5.25458 2.71243 5.25386 3.06167C5.25386 6.04796 7.68312 8.47723 10.6694 8.47723C11.5416 8.47723 12.3782 8.27299 13.1565 7.86862C13.2426 7.82382 13.3396 7.80422 13.4363 7.81209C13.5331 7.81996 13.6256 7.85497 13.7034 7.9131C13.7811 7.97123 13.8409 8.05012 13.8758 8.1407C13.9107 8.23128 13.9193 8.32987 13.9007 8.42514C13.3127 11.4434 10.6524 13.6349 7.5743 13.6349ZM4.22335 2.93685C3.57897 3.44198 3.05815 4.08727 2.70041 4.82375C2.34267 5.56023 2.15742 6.36853 2.15873 7.18729C2.15873 10.1736 4.588 12.6029 7.5743 12.6029C9.81066 12.6029 11.7845 11.2263 12.5958 9.21375C11.9759 9.40974 11.3306 9.50825 10.6689 9.50825C7.11371 9.50825 4.2218 6.61634 4.2218 3.06115C4.2218 3.01989 4.22232 2.97811 4.22335 2.93685Z" fill="white"/>
</svg>
