<svg width="15" height="15" viewBox="0 0 15 15" fill="none" xmlns="http://www.w3.org/2000/svg">
<path fill-rule="evenodd" clip-rule="evenodd" d="M8.09025 2.57883L9.21845 4.83271C9.32902 5.05398 9.54245 5.20741 9.78995 5.24291L12.3138 5.6062C12.9373 5.69623 13.1855 6.45196 12.7342 6.88498L10.9091 8.63864C10.7298 8.81109 10.6482 9.05899 10.6906 9.30244L11.1213 11.7782C11.2274 12.3907 10.5755 12.8579 10.0182 12.5682L7.7624 11.3985C7.54126 11.2837 7.27641 11.2837 7.05462 11.3985L4.79887 12.5682C4.24152 12.8579 3.58967 12.3907 3.69638 11.7782L4.12645 9.30244C4.16887 9.05899 4.08723 8.81109 3.90788 8.63864L2.08283 6.88498C1.63155 6.45196 1.87969 5.69623 2.50325 5.6062L5.02708 5.24291C5.27457 5.20741 5.48864 5.05398 5.59921 4.83271L6.72677 2.57883C7.00577 2.02154 7.81126 2.02154 8.09025 2.57883Z" fill="#EA2427" stroke="#EA2427" stroke-width="1.3891" stroke-linecap="round" stroke-linejoin="round"/>
</svg>
