<svg width="15" height="15" viewBox="0 0 15 15" fill="none" xmlns="http://www.w3.org/2000/svg">
<path d="M13.338 6.4577H12.65C12.2618 6.4577 11.948 6.70972 11.948 7.02C11.948 7.32958 12.2618 7.5809 12.65 7.5809H13.338C13.7255 7.5809 14.04 7.33028 14.04 7.02C14.04 6.71042 13.7248 6.4577 13.338 6.4577ZM7.02 3.159C6.51252 3.15742 6.00975 3.25622 5.5406 3.44969C5.07145 3.64317 4.64519 3.92751 4.28635 4.28635C3.92751 4.64519 3.64317 5.07145 3.44969 5.5406C3.25622 6.00975 3.15742 6.51252 3.159 7.02C3.159 9.1618 4.8782 10.881 7.02 10.881C9.1611 10.881 10.881 9.1618 10.881 7.02C10.881 4.8782 9.1604 3.159 7.02 3.159ZM7.02 9.828C5.46788 9.828 4.212 8.57072 4.212 7.02C4.212 5.46788 5.46788 4.212 7.02 4.212C7.76473 4.212 8.47895 4.50784 9.00556 5.03444C9.53216 5.56105 9.828 6.27527 9.828 7.02C9.828 7.76473 9.53216 8.47895 9.00556 9.00556C8.47895 9.53216 7.76473 9.828 7.02 9.828ZM2.106 7.02C2.106 6.71042 1.7908 6.4577 1.404 6.4577H0.702C0.313794 6.4577 0 6.70972 0 7.02C0 7.32958 0.313794 7.5809 0.702 7.5809H1.404C1.7908 7.5809 2.106 7.32958 2.106 7.02ZM7.02 2.106C7.32958 2.106 7.5809 1.79221 7.5809 1.404V0.702C7.5809 0.313794 7.32958 0 7.02 0C6.70972 0 6.4577 0.313794 6.4577 0.702V1.404C6.4577 1.79221 6.70972 2.106 7.02 2.106ZM7.02 11.934C6.70972 11.934 6.4577 12.2478 6.4577 12.636V13.338C6.4577 13.7262 6.70972 14.04 7.02 14.04C7.32958 14.04 7.5809 13.7262 7.5809 13.338V12.636C7.5809 12.2478 7.32958 11.934 7.02 11.934ZM12.1902 2.64373C12.4647 2.36925 12.5089 1.96911 12.2899 1.75009C12.0709 1.53106 11.67 1.57599 11.397 1.85047L10.9056 2.34117C10.6311 2.61565 10.5869 3.01579 10.8059 3.23482C11.0249 3.45384 11.4258 3.40891 11.6995 3.13443L12.1902 2.64373ZM2.34047 10.9042L1.84907 11.3963C1.57459 11.6707 1.53036 12.0695 1.74938 12.2885C1.96841 12.5075 2.36925 12.464 2.64233 12.1895L3.13373 11.6988C3.40821 11.4243 3.45244 11.0242 3.23341 10.8045C3.01439 10.5848 2.61355 10.6311 2.34047 10.9042ZM2.64303 1.84977C2.36925 1.57529 1.96841 1.53036 1.74938 1.74938C1.53036 1.96841 1.57529 2.36925 1.84837 2.64373L2.33977 3.13443C2.61425 3.40891 3.01369 3.45384 3.23271 3.23482C3.45173 3.01579 3.40751 2.61495 3.13373 2.34117L2.64303 1.84977ZM10.9049 11.6995L11.3963 12.1902C11.6707 12.4647 12.0702 12.5082 12.2892 12.2906C12.5082 12.0716 12.464 11.6708 12.1895 11.397L11.6988 10.9063C11.4243 10.6318 11.0242 10.5869 10.8045 10.8059C10.5848 11.0249 10.6304 11.4251 10.9049 11.6995Z" fill="#F5F5F5"/>
</svg>
